<svg xmlns="http://www.w3.org/2000/svg" width="231.67" height="48" viewBox="0 0 231.67 48">
  <g id="Raggruppa_1508" data-name="Raggruppa 1508" transform="translate(-910.929 -306.39)">
    <path id="Tracciato_921" data-name="Tracciato 921" d="M207.4,119.723q-3.941-4.905-3.94-12.644t4.012-12.648q4.007-4.905,11.523-4.907a16.386,16.386,0,0,1,5.561,1.077,20.359,20.359,0,0,1,2.023,1.073V85.942a11.221,11.221,0,0,0-1.01-5.406c-.678-1.171-2.023-1.756-4.049-1.756H220.8V76.63h8.67a7.573,7.573,0,0,1,3.976.86,4.757,4.757,0,0,1,1.95,2.83,21.181,21.181,0,0,1,.576,5.623v38.594h-6.141l-2.529-3.849h-.361a7.991,7.991,0,0,1-2.023,2.009,9.85,9.85,0,0,1-6.283,1.933q-7.3,0-11.236-4.907m17.518-.611a10.532,10.532,0,0,0,1.662-2.363V94.9a9.8,9.8,0,0,0-1.735-1.077,10.472,10.472,0,0,0-4.406-1.073q-7.227,0-7.227,14.328a27.535,27.535,0,0,0,1.625,10.494q1.629,3.832,5.241,3.834a6.538,6.538,0,0,0,4.84-2.295" transform="translate(743.797 229.76)" fill="#0890a1"/>
    <path id="Tracciato_922" data-name="Tracciato 922" d="M223.66,106.57a28.773,28.773,0,0,0,3.32,5.671,4.536,4.536,0,0,0,3.105,1.771v1.443l-2.671.146a16.19,16.19,0,0,1-8.127-1.877q-3.286-1.88-5.744-7.154L207.184,92.7l-9.884,22.81h-3.9L208.845,80.2h2.6Z" transform="translate(717.532 238.789)" fill="#0890a1"/>
    <path id="Tracciato_923" data-name="Tracciato 923" d="M220.395,89.23a28.926,28.926,0,0,0-3.324-5.671,4.536,4.536,0,0,0-3.1-1.771V80.345l2.671-.146a16.19,16.19,0,0,1,8.127,1.877q3.286,1.88,5.744,7.154l6.359,13.87,9.767-22.763h3.9L235.205,115.6h-2.6Z" transform="translate(771.175 238.789)" fill="#fff"/>
    <path id="Tracciato_924" data-name="Tracciato 924" d="M252.917,106.57a28.924,28.924,0,0,0,3.324,5.671,4.536,4.536,0,0,0,3.105,1.771v1.443l-2.671.146a16.19,16.19,0,0,1-8.127-1.877q-3.285-1.88-5.743-7.154L236.445,92.7l-9.883,22.81h-3.9L238.106,80.2h2.6Z" transform="translate(793.843 238.789)" fill="#fff"/>
    <path id="Tracciato_925" data-name="Tracciato 925" d="M238.434,85.943a11.188,11.188,0,0,0-1.013-5.41q-1.011-1.756-4.045-1.756h-.722V76.631h8.67a7.515,7.515,0,0,1,3.972.86,4.735,4.735,0,0,1,1.953,2.829,21.179,21.179,0,0,1,.576,5.623v38.593h-9.391Z" transform="translate(820.052 229.762)" fill="#fff"/>
    <path id="Tracciato_926" data-name="Tracciato 926" d="M247.177,113.252a15.787,15.787,0,0,1-6.031-6.356,20.351,20.351,0,0,1,0-17.989,15.8,15.8,0,0,1,6.031-6.359,19.23,19.23,0,0,1,18.426,0,15.821,15.821,0,0,1,6.031,6.359,20.351,20.351,0,0,1,0,17.989,15.812,15.812,0,0,1-6.031,6.356,19.23,19.23,0,0,1-18.426,0m14.847-4.876A23.889,23.889,0,0,0,263.977,97.9a23.906,23.906,0,0,0-1.953-10.478q-1.952-3.974-5.634-3.972t-5.634,3.972A23.906,23.906,0,0,0,248.8,97.9a23.889,23.889,0,0,0,1.953,10.474q1.946,3.974,5.634,3.976t5.634-3.976" transform="translate(836.286 238.787)" fill="#fff"/>
    <path id="Tracciato_927" data-name="Tracciato 927" d="M278.63,83.7a11.263,11.263,0,0,1,.579,1.192l-3.684,2.817a11.606,11.606,0,0,0-1.3-1.37,5.32,5.32,0,0,0-3.684-1.447,8.689,8.689,0,0,0-6.429,2.241l.142,1.082a21.262,21.262,0,0,1,.146,2.387v24.9H255V90.315a11.755,11.755,0,0,0-.973-5.456q-.979-1.771-4.009-1.768H249.3V80.923h7.15a9.9,9.9,0,0,1,3.863.612,4.567,4.567,0,0,1,2.2,2.059,13.446,13.446,0,0,1,9.1-3.4,8.618,8.618,0,0,1,5.131,1.447A5.986,5.986,0,0,1,278.63,83.7" transform="translate(863.39 238.787)" fill="#fff"/>
  </g>
</svg>
